<svg width="800" height="800" viewBox="0 0 800 800" fill="none" xmlns="http://www.w3.org/2000/svg">
<path d="M232.856 147.36C255.914 147.36 277.24 149.165 296.726 154.505C316.248 158.078 332.233 165.222 346.415 174.135C360.632 183.048 371.277 195.57 378.35 211.627C385.458 227.685 389.031 247.351 389.031 268.75C389.031 293.756 383.69 315.155 371.277 331.212C360.632 347.306 342.878 361.56 321.588 372.277C351.755 381.226 374.813 397.284 389.031 418.682C403.212 440.116 412.089 466.891 412.089 497.239C412.089 522.245 406.748 543.644 397.871 561.506C389.031 579.368 374.813 595.425 358.828 606.142C341.463 617.63 322.268 626.075 302.066 631.113C280.776 636.49 259.486 640.062 238.196 640.062H0.361328V147.36H232.856ZM218.638 347.27C238.16 347.27 254.146 341.93 266.559 333.017C278.972 324.104 284.313 308.01 284.313 288.38C284.313 277.663 282.508 266.945 278.972 259.837C275.436 252.692 270.095 247.315 263.023 241.975C255.788 237.92 248.011 234.919 239.928 233.062C231.051 231.258 222.211 231.258 211.53 231.258H108.616V347.306L218.638 347.27ZM223.979 557.933C234.624 557.933 245.269 556.129 254.146 554.361C263.023 552.557 271.899 549.02 278.972 543.644C286.203 538.42 292.252 531.731 296.726 524.013C300.262 515.101 303.834 504.383 303.834 491.898C303.834 466.891 296.726 449.029 282.544 436.544C268.327 425.827 248.805 420.486 225.747 420.486H108.616V557.969L223.979 557.933ZM566.496 556.129C580.677 570.419 601.967 577.563 630.366 577.563C649.888 577.563 667.641 572.223 681.823 563.31C696.04 552.593 704.917 541.875 708.453 531.158H795.418C781.2 573.991 759.91 604.338 731.548 623.968C703.113 641.83 669.41 652.548 628.598 652.548C602.485 652.628 576.592 647.78 552.278 638.258C530.399 630.053 510.888 616.566 495.481 598.998C479.001 582.564 466.819 562.326 460.009 540.071C451.133 516.869 447.56 491.898 447.56 463.319C447.56 436.544 451.133 411.573 460.009 388.335C468.555 365.963 481.196 345.379 497.285 327.64C513.235 311.582 532.756 297.329 554.046 288.38C577.743 278.856 603.058 274.003 628.598 274.09C658.765 274.09 685.395 279.467 708.453 291.952C731.548 304.438 749.265 318.727 763.447 340.161C777.664 359.792 788.345 382.994 795.418 408.001C798.954 432.972 800.722 457.978 798.954 486.521H541.633C541.633 515.101 552.278 541.875 566.496 556.165M678.286 368.741C665.873 356.255 646.351 349.11 623.257 349.11C609.716 348.907 596.325 351.964 584.213 358.023C573.568 363.4 566.496 370.545 559.387 377.69C552.855 384.591 548.532 393.286 546.974 402.66C545.17 411.609 543.401 418.718 543.401 425.863H703.113C699.576 399.088 690.7 381.262 678.286 368.741ZM522.111 181.28H720.866V229.489H522.147L522.111 181.28Z" fill="#F8FAFC"/>
</svg>
