<svg width="40" height="40" viewBox="0 0 40 40" fill="none" xmlns="http://www.w3.org/2000/svg">
<path d="M1.625 11.6667C1.625 8.88889 2.60444 6.52056 4.56333 4.56167C6.52222 2.60278 8.89 1.62389 11.6667 1.625V5C9.83333 5 8.26389 5.65278 6.95833 6.95833C5.65278 8.26389 5 9.83333 5 11.6667H1.625ZM8.83333 31.2083C6.30556 28.6806 5.04167 25.6389 5.04167 22.0833C5.04167 18.5278 6.30556 15.4861 8.83333 12.9583L11.75 10L12.25 10.5C13.0556 11.3056 13.4583 12.2844 13.4583 13.4367C13.4583 14.5889 13.0556 15.5683 12.25 16.375L11.6667 16.9583C11.3333 17.2917 11.1667 17.6878 11.1667 18.1467C11.1667 18.6056 11.3333 19.0011 11.6667 19.3333L13.1667 20.8333C13.8889 21.5556 14.25 22.4306 14.25 23.4583C14.25 24.4861 13.8889 25.3611 13.1667 26.0833L14.9583 27.875C16.1806 26.6528 16.7917 25.1872 16.7917 23.4783C16.7917 21.7694 16.1667 20.2911 14.9167 19.0433L14 18.1267C14.7222 17.4044 15.2361 16.5917 15.5417 15.6883C15.8472 14.785 15.9722 13.8611 15.9167 12.9167L23.375 5.45833C23.7083 5.125 24.1044 4.95833 24.5633 4.95833C25.0222 4.95833 25.4178 5.125 25.75 5.45833C26.0833 5.79167 26.25 6.18722 26.25 6.645C26.25 7.10278 26.0833 7.49889 25.75 7.83333L17.9583 15.625L19.7083 17.375L29.75 7.375C30.0833 7.04167 30.4722 6.875 30.9167 6.875C31.3611 6.875 31.75 7.04167 32.0833 7.375C32.4167 7.70833 32.5833 8.09722 32.5833 8.54167C32.5833 8.98611 32.4167 9.375 32.0833 9.70833L22.0833 19.75L23.8333 21.5L32.6667 12.6667C33 12.3333 33.3961 12.1667 33.855 12.1667C34.3139 12.1667 34.7094 12.3333 35.0417 12.6667C35.375 13 35.5417 13.3961 35.5417 13.855C35.5417 14.3139 35.375 14.7094 35.0417 15.0417L26.2083 23.875L27.9583 25.625L34.7083 18.875C35.0417 18.5417 35.4378 18.375 35.8967 18.375C36.3556 18.375 36.7511 18.5417 37.0833 18.875C37.4167 19.2083 37.5833 19.6044 37.5833 20.0633C37.5833 20.5222 37.4167 20.9178 37.0833 21.25L27.0833 31.2083C24.5556 33.7361 21.5139 35 17.9583 35C14.4028 35 11.3611 33.7361 8.83333 31.2083ZM28.3333 38.375V35C30.1667 35 31.7361 34.3472 33.0417 33.0417C34.3472 31.7361 35 30.1667 35 28.3333H38.375C38.375 31.1111 37.3956 33.4794 35.4367 35.4383C33.4778 37.3972 31.11 38.3761 28.3333 38.375Z" fill="#020617"/>
</svg>
