<svg width="24" height="24" viewBox="0 0 24 24" fill="none" xmlns="http://www.w3.org/2000/svg">
<path d="M11.9629 2C0.553633 2.23901 -1.82042 17.5483 8.85181 21.2204C9.34982 21.3134 9.53583 21.0014 9.53583 20.7424V19.0624C6.74577 19.6634 6.15575 17.7453 6.15575 17.7453C5.96852 17.145 5.57032 16.6328 5.03473 16.3033C4.13271 15.6913 5.10673 15.7013 5.10673 15.7013C5.42574 15.7433 5.73059 15.859 5.99718 16.0391C6.26377 16.2193 6.4848 16.459 6.64277 16.7393C6.92564 17.2318 7.39051 17.5935 7.93736 17.7466C8.4842 17.8998 9.06933 17.8322 9.56683 17.5583C9.61883 17.0583 9.84184 16.5933 10.1998 16.2413C7.96979 15.9913 5.63574 15.1413 5.63574 11.3662C5.62193 10.3826 5.99465 9.43283 6.67377 8.72115C6.35963 7.86386 6.39665 6.91722 6.77677 6.08709C6.77677 6.08709 7.61679 5.82708 9.53683 7.12411C11.1805 6.67808 12.9133 6.67808 14.5569 7.12411C16.465 5.84808 17.305 6.08609 17.305 6.08609C17.67 6.91411 17.703 7.84913 17.398 8.70015C18.0768 9.41193 18.4492 10.3617 18.435 11.3452C18.435 15.1313 16.091 15.9713 13.8609 16.2103C14.8989 16.7603 14.4629 20.2964 14.5249 20.7324C14.5249 20.9914 14.7009 21.3024 15.22 21.2094C25.8622 17.5693 23.3721 2.23901 11.9629 2Z" fill="#222848"/>
</svg>
