<svg width="24" height="24" viewBox="0 0 24 24" fill="none" xmlns="http://www.w3.org/2000/svg">
<path d="M19.0392 19.0433H16.0775V14.4025C16.0775 13.2958 16.055 11.8717 14.5342 11.8717C12.99 11.8717 12.7542 13.0758 12.7542 14.3208V19.0433H9.7925V9.5H12.6375V10.8008H12.6758C13.0733 10.0508 14.04 9.25917 15.4842 9.25917C18.485 9.25917 19.04 11.2342 19.04 13.805L19.0392 19.0433ZM6.4475 8.19417C6.2215 8.1945 5.99766 8.1502 5.78883 8.06381C5.57999 7.97743 5.39027 7.85066 5.23054 7.69078C5.07081 7.5309 4.94423 7.34105 4.85805 7.13213C4.77187 6.92321 4.72778 6.69933 4.72833 6.47333C4.7285 6.13315 4.82954 5.80065 5.01867 5.51789C5.2078 5.23513 5.47654 5.01481 5.79089 4.88478C6.10524 4.75474 6.45109 4.72085 6.78471 4.78738C7.11832 4.85391 7.42472 5.01787 7.66515 5.25853C7.90558 5.4992 8.06924 5.80575 8.13545 6.13943C8.20165 6.47311 8.16742 6.81893 8.03709 7.13315C7.90675 7.44738 7.68616 7.7159 7.40322 7.90476C7.12028 8.09362 6.78768 8.19433 6.4475 8.19417ZM7.9325 19.0433H4.9625V9.5H7.9325V19.0433ZM20.5208 2H3.47583C2.66 2 2 2.645 2 3.44083V20.5592C2 21.3558 2.66 22 3.47583 22H20.5183C21.3333 22 22 21.3558 22 20.5592V3.44083C22 2.645 21.3333 2 20.5183 2H20.5208Z" fill="#222848"/>
</svg>
